<svg width="155" height="136" viewBox="0 0 155 136" fill="none" xmlns="http://www.w3.org/2000/svg">
<path d="M33.7666 0C27.3683 0 21.232 2.54173 16.7077 7.06605C12.1834 11.5904 9.64162 17.7267 9.64162 24.125V51.9363C9.64162 56.6938 6.96857 61.0363 2.74187 63.1979C1.92088 63.5908 1.22778 64.208 0.742617 64.9781C0.257449 65.7482 0 66.6398 0 67.55C0 68.4602 0.257449 69.3518 0.742617 70.1219C1.22778 70.892 1.92088 71.5092 2.74187 71.9022C6.96857 74.0541 9.64162 78.4063 9.64162 83.1637V110.975C9.64162 117.373 12.1834 123.51 16.7077 128.034C21.232 132.558 27.3683 135.1 33.7666 135.1C35.0463 135.1 36.2736 134.592 37.1784 133.687C38.0833 132.782 38.5916 131.555 38.5916 130.275C38.5916 128.995 38.0833 127.768 37.1784 126.863C36.2736 125.958 35.0463 125.45 33.7666 125.45C29.9276 125.45 26.2458 123.925 23.5313 121.21C20.8167 118.496 19.2916 114.814 19.2916 110.975V83.1637C19.2916 77.229 16.937 71.6513 12.9033 67.55C16.9968 63.3839 19.2909 57.777 19.2916 51.9363V24.125C19.2916 20.286 20.8167 16.6042 23.5313 13.8896C26.2458 11.175 29.9276 9.65 33.7666 9.65C35.0463 9.65 36.2736 9.14165 37.1784 8.23679C38.0833 7.33193 38.5916 6.10467 38.5916 4.825C38.5916 3.54533 38.0833 2.31807 37.1784 1.41321C36.2736 0.508348 35.0463 0 33.7666 0ZM120.617 0C127.015 0 133.151 2.54173 137.676 7.06605C142.2 11.5904 144.742 17.7267 144.742 24.125V51.9363C144.742 56.6938 147.415 61.0363 151.641 63.1979C152.462 63.5908 153.155 64.208 153.641 64.9781C154.126 65.7482 154.383 66.6398 154.383 67.55C154.383 68.4602 154.126 69.3518 153.641 70.1219C153.155 70.892 152.462 71.5092 151.641 71.9022C149.565 72.9608 147.822 74.5729 146.604 76.5602C145.386 78.5476 144.742 80.833 144.742 83.1637V110.975C144.742 117.373 142.2 123.51 137.676 128.034C133.151 132.558 127.015 135.1 120.617 135.1C119.337 135.1 118.11 134.592 117.205 133.687C116.3 132.782 115.792 131.555 115.792 130.275C115.792 128.995 116.3 127.768 117.205 126.863C118.11 125.958 119.337 125.45 120.617 125.45C124.456 125.45 128.137 123.925 130.852 121.21C133.567 118.496 135.092 114.814 135.092 110.975V83.1637C135.092 77.229 137.446 71.6513 141.48 67.55C137.386 63.3839 135.092 57.777 135.092 51.9363V24.125C135.092 20.286 133.567 16.6042 130.852 13.8896C128.137 11.175 124.456 9.65 120.617 9.65C119.337 9.65 118.11 9.14165 117.205 8.23679C116.3 7.33193 115.792 6.10467 115.792 4.825C115.792 3.54533 116.3 2.31807 117.205 1.41321C118.11 0.508348 119.337 0 120.617 0ZM56.9942 30.9765C56.235 29.9794 55.1176 29.3169 53.8786 29.129C52.6396 28.9412 51.3761 29.2428 50.3554 29.97C49.3348 30.6972 48.6372 31.793 48.4102 33.0255C48.1832 34.2579 48.4446 35.5304 49.1391 36.5735L71.2665 67.55L49.1391 98.5265C48.4446 99.5697 48.1832 100.842 48.4102 102.075C48.6372 103.307 49.3348 104.403 50.3554 105.13C51.3761 105.857 52.6396 106.159 53.8786 105.971C55.1176 105.783 56.235 105.121 56.9942 104.124L77.1916 75.849L97.3891 104.124C98.1483 105.121 99.2656 105.783 100.505 105.971C101.744 106.159 103.007 105.857 104.028 105.13C105.048 104.403 105.746 103.307 105.973 102.075C106.2 100.842 105.939 99.5697 105.244 98.5265L83.1167 67.55L105.244 36.5735C105.636 36.0591 105.92 35.4713 106.08 34.8449C106.24 34.2186 106.273 33.5664 106.176 32.9272C106.079 32.288 105.855 31.6748 105.516 31.1241C105.178 30.5733 104.732 30.0961 104.205 29.721C103.679 29.3458 103.082 29.0803 102.451 28.9402C101.82 28.8001 101.167 28.7882 100.531 28.9053C99.8955 29.0224 99.2897 29.2661 98.7499 29.6219C98.2101 29.9777 97.7474 30.4384 97.3891 30.9765L77.1916 59.251L56.9942 30.9765Z" fill="#D7DEFF"/>
</svg>
